<svg width="50" height="50" viewBox="0 0 50 50" fill="none" xmlns="http://www.w3.org/2000/svg">
<path fill-rule="evenodd" clip-rule="evenodd" d="M41.1752 33.8248L36.1324 25.0904C35.7713 24.465 34.8686 24.465 34.5075 25.0904L29.4647 33.8248C29.1036 34.4502 29.555 35.232 30.2771 35.232H40.3628C41.0849 35.232 41.5363 34.4503 41.1752 33.8248ZM40.1947 22.7451C38.0281 18.9925 32.6118 18.9925 30.4452 22.7451L25.4024 31.4795C23.2359 35.232 25.9441 39.9227 30.2771 39.9227H40.3628C44.6958 39.9227 47.404 35.232 45.2375 31.4795L40.1947 22.7451Z" fill="#2F80ED"/>
<path fill-rule="evenodd" clip-rule="evenodd" d="M31.6734 33.674L21.5616 16.1598C21.2005 15.5344 20.2978 15.5343 19.9367 16.1598L9.82479 33.674C9.46371 34.2994 9.91507 35.0812 10.6373 35.0812H30.861C31.5832 35.0812 32.0345 34.2995 31.6734 33.674ZM25.6238 13.8144C23.4573 10.0619 18.0409 10.0619 15.8744 13.8144L5.76252 31.3287C3.59597 35.0812 6.30416 39.772 10.6373 39.772H30.861C35.1941 39.772 37.9023 35.0812 35.7357 31.3287L25.6238 13.8144Z" fill="#2F80ED"/>
</svg>
